<?xml version="1.0" encoding="UTF-8"?>
<svg xmlns="http://www.w3.org/2000/svg" xmlns:xlink="http://www.w3.org/1999/xlink" width="800px" height="628px" viewBox="0 0 800 628" version="1.1">
<g id="surface1">
<path style=" stroke:none;fill-rule:nonzero;fill:rgb(98.431373%,10.980392%,10.980392%);fill-opacity:1;" d="M 376.332031 321.589844 C 366.71875 329.074219 363.828125 340.382812 369.019531 350.199219 C 374.214844 360.019531 386.457031 366.394531 400 366.332031 L 406.332031 366.332031 C 408.542969 366.089844 410.683594 365.558594 412.667969 364.761719 C 414.714844 364.242188 416.632812 363.445312 418.332031 362.410156 L 423.332031 359.269531 C 429.644531 354.355469 433.191406 347.667969 433.191406 340.691406 C 433.191406 333.714844 429.644531 327.023438 423.332031 322.113281 C 410.515625 311.820312 389.515625 311.585938 376.332031 321.589844 Z M 400 392.5 C 381.589844 392.5 366.667969 404.214844 366.667969 418.667969 L 366.667969 497.167969 C 366.667969 511.617188 381.589844 523.332031 400 523.332031 C 418.410156 523.332031 433.332031 511.617188 433.332031 497.167969 L 433.332031 418.667969 C 433.332031 404.214844 418.410156 392.5 400 392.5 Z M 614 215.089844 C 572.140625 139.582031 471.234375 95.285156 367.367188 106.820312 C 263.496094 118.355469 182.203125 182.886719 168.667969 264.546875 C 102.882812 276.910156 59.320312 325.988281 67.320312 378.714844 C 75.324219 431.441406 132.355469 471.113281 200 471 L 266.667969 471 C 285.074219 471 300 459.285156 300 444.832031 C 300 430.382812 285.074219 418.667969 266.667969 418.667969 L 200 418.667969 C 163.179688 418.667969 133.332031 395.234375 133.332031 366.332031 C 133.332031 337.429688 163.179688 314 200 314 C 218.410156 314 233.332031 302.285156 233.332031 287.832031 C 233.507812 223.925781 292.472656 169.46875 372.792969 159.039062 C 453.109375 148.605469 531.277344 185.25 557.667969 245.703125 C 561.550781 254.867188 571.542969 261.605469 583.667969 263.238281 C 631.425781 269.703125 666.402344 302.121094 666.667969 340.167969 C 666.667969 383.519531 621.894531 418.667969 566.667969 418.667969 L 533.332031 418.667969 C 514.925781 418.667969 500 430.382812 500 444.832031 C 500 459.285156 514.925781 471 533.332031 471 L 566.667969 471 C 648.875 470.40625 718.253906 422.839844 730.066406 358.972656 C 741.878906 295.101562 692.597656 234.015625 614 215.089844 Z M 614 215.089844 "/>
</g>
</svg>
